HIERARCHY
ROOT Pelvis
{
	OFFSET 0.000000 0.000000 0.000000
	CHANNELS 6 Xposition Yposition Zposition Xrotation Yrotation Zrotation
	JOINT LeftUpLeg_virtual
	{
		OFFSET 0.000000 0.000000 0.000000
		CHANNELS 3 Xrotation Yrotation Zrotation
		JOINT LeftUpLeg
		{
			OFFSET 18.735201 -5.666702 -4.541200
			CHANNELS 3 Xrotation Yrotation Zrotation
			JOINT LeftLeg
			{
				OFFSET -0.021200 -31.938179 0.493100
				CHANNELS 3 Xrotation Yrotation Zrotation
				JOINT LeftFoot
				{
					OFFSET 0.021200 -31.938179 -4.336299
					CHANNELS 3 Xrotation Yrotation Zrotation
					JOINT LeftToeBase
					{
						OFFSET 0.943001 -26.722000 15.023500
						CHANNELS 3 Xrotation Yrotation Zrotation
						End Site
						{
							OFFSET 0 0 0
						}
					}
				}
			}
		}
	}
	JOINT RightUpLeg_virtual
	{
		OFFSET 0.000000 0.000000 0.000000
		CHANNELS 3 Xrotation Yrotation Zrotation
		JOINT RightUpLeg
		{
			OFFSET -18.735201 -5.666702 -4.541200
			CHANNELS 3 Xrotation Yrotation Zrotation
			JOINT RightLeg
			{
				OFFSET 0.018946 -31.938133 0.493100
				CHANNELS 3 Xrotation Yrotation Zrotation
				JOINT RightFoot
				{
					OFFSET -0.018946 -31.938126 -4.336299
					CHANNELS 3 Xrotation Yrotation Zrotation
					JOINT RightToeBase
					{
						OFFSET -0.943001 -26.722004 15.023500
						CHANNELS 3 Xrotation Yrotation Zrotation
						End Site
						{
							OFFSET 0 0 0
						}
					}
				}
			}
		}
	}
	JOINT Hips_virtual
	{
		OFFSET 0.000000 0.000000 0.000000
		CHANNELS 3 Xrotation Yrotation Zrotation
		JOINT Hips
		{
			OFFSET -0.000000 -0.000000 -0.000000
			CHANNELS 3 Xrotation Yrotation Zrotation
			JOINT Spine
			{
				OFFSET 0.000000 10.199997 -0.299500
				CHANNELS 3 Xrotation Yrotation Zrotation
				JOINT Spine1
				{
					OFFSET 0.000000 11.900002 -1.516600
					CHANNELS 3 Xrotation Yrotation Zrotation
					JOINT Spine2
					{
						OFFSET 0.000000 13.600006 -2.842500
						CHANNELS 3 Xrotation Yrotation Zrotation
						JOINT Neck_virtual
						{
							OFFSET 0.000000 0.000000 0.000000
							CHANNELS 3 Xrotation Yrotation Zrotation
							JOINT Neck
							{
								OFFSET 0.000000 9.624100 -2.890100
								CHANNELS 3 Xrotation Yrotation Zrotation
								JOINT Head
								{
									OFFSET 0.000000 14.068802 -1.351900
									CHANNELS 3 Xrotation Yrotation Zrotation
									End Site
									{
										OFFSET 0 0 0
									}
								}
							}
						}
						JOINT LeftShoulder_virtual
						{
							OFFSET 0.000000 0.000000 0.000000
							CHANNELS 3 Xrotation Yrotation Zrotation
							JOINT LeftShoulder
							{
								OFFSET 15.263000 10.923401 -0.547700
								CHANNELS 3 Xrotation Yrotation Zrotation
								JOINT LeftArm
								{
									OFFSET 25.438599 -2.830597 -13.032500
									CHANNELS 3 Xrotation Yrotation Zrotation
									JOINT LeftForeArm
									{
										OFFSET 29.960503 0.000000 0.000000
										CHANNELS 3 Xrotation Yrotation Zrotation
										JOINT LeftHand
										{
											OFFSET 27.849251 0.000000 0.000000
											CHANNELS 3 Xrotation Yrotation Zrotation
											End Site
											{
												OFFSET 0 0 0
											}
										}
									}
								}
							}
						}
						JOINT RightShoulder_virtual
						{
							OFFSET 0.000000 0.000000 0.000000
							CHANNELS 3 Xrotation Yrotation Zrotation
							JOINT RightShoulder
							{
								OFFSET -15.263000 10.923401 -0.547700
								CHANNELS 3 Xrotation Yrotation Zrotation
								JOINT RightArm
								{
									OFFSET -25.438599 -2.830597 -13.032500
									CHANNELS 3 Xrotation Yrotation Zrotation
									JOINT RightForeArm
									{
										OFFSET -29.960503 0.000000 0.000000
										CHANNELS 3 Xrotation Yrotation Zrotation
										JOINT RightHand
										{
											OFFSET -27.849251 0.000000 0.000000
											CHANNELS 3 Xrotation Yrotation Zrotation
											End Site
											{
												OFFSET 0 0 0
											}
										}
									}
								}
							}
						}
					}
				}
			}
		}
	}
}
MOTION
Frames: 8
Frame Time: 0.03333333
-3.599417 84.519653 10.826462 0.000000 0.000000 0.000000 9.312473 -60.686142 7.656911 -40.352163 4.712544 26.004875 45.177590 -7.204271 1.373145 -7.803866 -6.800591 -22.641894 0.000000 0.000000 0.000000 8.739028 -59.572234 7.625024 -35.078813 7.153997 -27.676922 53.097419 -3.958063 -3.685457 -23.739905 5.425697 18.366746 0.000000 0.000000 0.000000 8.506701 -60.238567 7.225993 -0.740348 0.065740 0.046713 12.678805 12.169991 1.456238 12.626125 -5.839592 -3.215839 0.000000 0.000000 0.000000 3.142807 -5.307685 -2.169708 -6.663038 1.029681 2.875559 0.000000 0.000000 0.000000 8.808616 -6.756410 -1.754042 -13.904219 -0.597438 -1.412206 -14.788603 -0.658584 -46.959880 -0.422407 -33.455004 7.627142 0.000000 0.000000 0.000000 1.779281 -4.819322 -3.333370 2.246725 -6.499534 12.473020 -55.098846 4.927275 25.965015 107.453554 74.529754 -103.452477 0.000000 0.000000 0.000000 
-3.563860 84.460724 10.566002 0.000000 0.000000 0.000000 9.151940 -60.778985 7.706012 -40.476630 5.554160 26.122130 45.594443 -7.019524 1.268210 -7.193989 -6.283682 -21.770098 0.000000 0.000000 0.000000 8.802061 -59.785151 7.847321 -34.959647 7.097603 -27.873073 52.431715 -3.730638 -3.618363 -22.565152 5.734907 17.532577 0.000000 0.000000 0.000000 8.692480 -60.197121 7.502444 -0.763449 0.077245 0.019142 13.169223 12.253428 1.152671 12.369968 -5.919397 -3.265954 0.000000 0.000000 0.000000 3.388958 -5.363182 -2.141414 -6.545396 0.892727 2.870457 0.000000 0.000000 0.000000 8.916190 -6.823966 -1.804003 -13.911031 0.217029 -2.024442 -14.916677 -0.540985 -47.530716 0.399445 -33.617245 7.136685 0.000000 0.000000 0.000000 1.618813 -4.832207 -3.055659 2.353153 -6.565544 12.011860 -55.070159 3.952839 25.698986 107.137022 74.848833 -102.792551 0.000000 0.000000 0.000000 
-3.636553 84.391617 10.200871 0.000000 0.000000 0.000000 8.832444 -61.259270 7.938109 -40.200076 7.173294 26.009833 45.546440 -6.863909 0.964079 -7.673159 -5.441047 -20.932918 0.000000 0.000000 0.000000 8.632796 -60.310564 8.196110 -35.400146 7.353833 -28.228999 52.903131 -3.640951 -2.988740 -21.675428 5.379823 15.532859 0.000000 0.000000 0.000000 8.809860 -60.497103 8.031635 -0.767554 0.079028 -0.021293 13.856175 12.334995 0.386974 12.096722 -5.927249 -3.002357 0.000000 0.000000 0.000000 3.498041 -5.379789 -1.891568 -6.712797 0.801101 2.868705 0.000000 0.000000 0.000000 9.196220 -6.807770 -1.546758 -13.781274 0.492188 -2.897556 -15.973859 1.206503 -48.675374 1.815065 -35.083239 6.501593 0.000000 0.000000 0.000000 1.737727 -4.788372 -2.501790 2.451532 -6.241093 10.479962 -55.497421 2.514228 25.680277 104.448393 75.382885 -99.583407 0.000000 0.000000 0.000000 
-3.798326 84.339264 9.932533 0.000000 0.000000 0.000000 8.406125 -62.246656 8.375022 -39.344167 9.317682 25.601654 44.684481 -6.844723 0.468306 -8.512288 -4.551572 -20.306986 0.000000 0.000000 0.000000 8.309813 -61.320154 8.650060 -36.129638 7.884691 -28.718094 53.822174 -3.707644 -1.932901 -21.557750 4.457605 12.735000 0.000000 0.000000 0.000000 8.807497 -61.324915 8.786349 -0.751666 0.062574 -0.053681 14.579097 12.420005 -0.715104 11.873554 -5.849318 -2.402892 0.000000 0.000000 0.000000 3.592840 -5.316630 -1.375272 -7.029160 0.793986 2.826943 0.000000 0.000000 0.000000 9.629090 -6.677780 -1.016583 -13.549704 0.514631 -3.728633 -17.454724 4.443676 -50.100711 3.866743 -37.639827 5.846135 0.000000 0.000000 0.000000 2.095714 -4.660569 -1.685893 2.555152 -5.506008 7.980303 -55.770301 1.710967 24.501188 99.429823 76.171977 -93.773163 0.000000 0.000000 0.000000 
-4.032751 84.338715 9.817524 0.000000 0.000000 0.000000 7.962395 -63.885273 9.048252 -38.043071 11.792257 24.944896 43.464158 -6.859453 -0.203348 -8.352990 -3.639631 -19.538702 0.000000 0.000000 0.000000 7.892103 -62.997348 9.235995 -36.877059 8.845990 -29.301938 54.418982 -3.609523 -0.647477 -21.941219 3.483751 10.424675 0.000000 0.000000 0.000000 8.675124 -62.864166 9.731440 -0.733004 0.047453 -0.067575 15.148668 12.533153 -2.007148 11.757771 -5.689404 -1.440610 0.000000 0.000000 0.000000 3.845072 -5.149161 -0.578229 -7.234944 0.959106 2.633872 0.000000 0.000000 0.000000 10.253792 -6.391787 -0.285400 -13.325668 0.519896 -4.500652 -18.315197 8.691563 -51.359088 6.745564 -40.910559 5.421130 0.000000 0.000000 0.000000 2.638323 -4.427363 -0.611091 2.705902 -4.225177 4.665769 -55.078874 2.123151 21.416405 89.672802 77.153311 -82.908210 0.000000 0.000000 0.000000 
-4.286466 84.361031 9.881962 0.000000 0.000000 0.000000 7.651598 -66.216601 10.006396 -36.613451 14.328825 24.092857 42.703453 -6.767664 -0.913345 -7.034471 -2.596171 -18.210659 0.000000 0.000000 0.000000 7.516720 -65.420433 10.033626 -37.472241 10.495281 -30.011773 54.464249 -2.975649 0.648525 -22.388259 2.939552 9.740891 0.000000 0.000000 0.000000 8.507457 -65.055633 10.877547 -0.743362 0.032857 -0.059894 15.395935 12.706454 -3.314143 11.778927 -5.482061 -0.221785 0.000000 0.000000 0.000000 4.438385 -4.882431 0.451607 -7.100425 1.345782 2.209276 0.000000 0.000000 0.000000 11.053757 -6.000331 0.553770 -13.204209 0.604248 -4.995124 -17.576338 12.998005 -52.103473 10.672963 -44.582294 5.541567 0.000000 0.000000 0.000000 3.318132 -4.111064 0.682807 3.005795 -2.406754 0.872544 -52.943467 3.813710 16.861580 71.537783 77.482404 -63.344151 0.000000 0.000000 0.000000 
-4.553186 84.318825 10.184193 0.000000 0.000000 0.000000 7.601563 -69.180609 11.268745 -35.108279 16.527970 23.022609 42.834285 -6.774630 -1.444063 -5.420571 -1.457484 -16.404123 0.000000 0.000000 0.000000 7.293216 -68.481143 11.078556 -38.186806 12.926444 -30.956036 54.395046 -1.610777 1.852479 -22.280721 3.123228 11.041575 0.000000 0.000000 0.000000 8.359964 -67.842930 12.188627 -0.768852 0.024499 -0.049864 15.332176 12.902939 -4.369057 11.925295 -5.275840 1.128041 0.000000 0.000000 0.000000 5.507450 -4.587842 1.588804 -6.457248 1.948067 1.548700 0.000000 0.000000 0.000000 11.893163 -5.599838 1.394164 -13.210557 0.669384 -5.192387 -15.396010 16.744733 -51.795777 15.715637 -48.306226 6.428267 0.000000 0.000000 0.000000 4.016992 -3.779163 2.154122 3.577615 -0.269536 -3.393878 -50.030709 6.431294 12.377519 48.381184 75.272530 -38.509317 0.000000 0.000000 0.000000 
-4.861280 84.169662 10.689777 0.000000 0.000000 0.000000 8.006296 -72.551758 12.930603 -33.493458 18.336095 21.862901 43.780481 -7.079043 -1.760725 -4.288512 -0.422084 -14.538707 0.000000 0.000000 0.000000 7.381659 -71.827089 12.440176 -39.002405 16.021814 -32.054061 54.488739 0.401859 2.896525 -21.614888 3.923591 13.988001 0.000000 0.000000 0.000000 8.399376 -70.914323 13.658274 -0.797268 0.033588 -0.048840 14.961635 13.089296 -4.836994 12.136859 -5.101901 2.449545 0.000000 0.000000 0.000000 7.002348 -4.367156 2.657543 -5.229607 2.709399 0.692363 0.000000 0.000000 0.000000 12.715647 -5.296744 2.136833 -13.355811 0.489636 -5.015583 -12.484774 19.705866 -49.734330 21.890104 -51.768121 8.368556 0.000000 0.000000 0.000000 4.630609 -3.466154 3.677562 4.391932 1.910029 -7.990019 -47.492802 9.614403 9.902937 31.877835 69.890621 -20.258594 0.000000 0.000000 0.000000 
